<svg xmlns="http://www.w3.org/2000/svg" width="10" height="16" viewBox="0 0 10 16">
  <g fill="none" fill-rule="evenodd">
    <path fill="#FFF" fill-rule="nonzero" d="M9,7 L2,7 C1.44775391,7 1,7.44775391 1,8 L1,15 C1,15.5522461 1.44775391,16 2,16 L9,16 C9.55224609,16 10,15.5522461 10,15 L10,8 C10,7.44775391 9.55224609,7 9,7 Z M5.5,11.5 C4.94775391,11.5 4.5,11.0522461 4.5,10.5 C4.5,9.94775391 4.94775391,9.5 5.5,9.5 C6.05224609,9.5 6.5,9.94775391 6.5,10.5 C6.5,11.0522461 6.05224609,11.5 5.5,11.5 Z"/>
    <g fill-rule="nonzero">
      <path fill="#DD4AC0" d="M8.5,6 L2.5,6 L2.5,1.5 C2.5,1.22387694 2.72387694,1 3,1 L7,1 C7.27612306,1 7.5,1.22387694 7.5,1.5 L7.5,3.5 L8.5,3.5 L8.5,1.5 C8.5,0.671508781 7.82849122,0 7,0 L3,0 C2.17163088,0 1.5,0.671508781 1.5,1.5 L1.5,6 C0.671630875,6 0,6.67163087 0,7.5 L0,14.5 C0,15.3284912 0.671630875,16 1.5,16 L8.5,16 C9.32849122,16 10,15.3284912 10,14.5 L10,7.5 C10,6.67163087 9.32849122,6 8.5,6 Z M9,14.5 C9,14.7761231 8.77612306,15 8.5,15 L1.5,15 C1.22387694,15 1,14.7761231 1,14.5 L1,7.5 C1,7.22387694 1.22387694,7 1.5,7 L8.5,7 C8.77612306,7 9,7.22387694 9,7.5 L9,14.5 Z"/>
      <path fill="#783DE2" d="M5,8.5 C4.17346191,8.49841309 3.50219725,9.16711425 3.50073244,9.99365234 C3.49951172,10.6295166 3.90026856,11.1967773 4.5,11.407959 L4.5,13.5 L5.5,13.5 L5.5,11.407959 C6.279541,11.1334228 6.68884278,10.2789307 6.41430663,9.49938966 C6.203125,8.89953612 5.63586425,8.49877931 5,8.5 Z M5,10.5 C4.72387694,10.5 4.5,10.2761231 4.5,10 C4.5,9.72387694 4.72387694,9.5 5,9.5 C5.27612306,9.5 5.5,9.72387694 5.5,10 C5.5,10.2761231 5.27612306,10.5 5,10.5 Z"/>
    </g>
  </g>
</svg>
